<?xml version="1.0" encoding="UTF-8"?>
<svg width="200px" height="200px" viewBox="0 0 200 200" version="1.1" xmlns="http://www.w3.org/2000/svg" xmlns:xlink="http://www.w3.org/1999/xlink">
    <g id="exp1" stroke="none" stroke-width="1" fill="none" fill-rule="evenodd">
        <path id="outside" fill="#000000" fill-rule="nonzero" d="M100,180 C144.182945,180 180,144.182615 180,100 C180,55.8173851 144.182945,20 100,20 C55.8170547,20 20,55.8173851 20,100 C20,144.182615 55.8170547,180 100,180 Z M100,178.416601 C56.6926795,178.416601 21.5848602,143.308458 21.5848602,100 C21.5848602,56.691542 56.6926795,21.5833989 100,21.5833989 C143.307321,21.5833989 178.41514,56.691542 178.41514,100 C178.41514,143.308458 143.307321,178.416601 100,178.416601 Z"></path>
        <path id="inside"  fill="#000000" fill-rule="nonzero" d="M100.010632,156.226002 C131.070037,156.226002 156.248361,131.047447 156.248361,99.9884926 C156.248361,68.9295386 131.070037,43.7509828 100.010632,43.7509828 C68.9512264,43.7509828 43.7729029,68.9295386 43.7729029,99.9884926 C43.7729029,131.047447 68.9512264,156.226002 100.010632,156.226002 Z M100.010632,154.642604 C69.8268513,154.642604 45.3577631,130.17329 45.3577631,99.9884926 C45.3577631,69.8036956 69.8268513,45.3343817 100.010632,45.3343817 C130.194413,45.3343817 154.663501,69.8036956 154.663501,99.9884926 C154.663501,130.17329 130.194413,154.642604 100.010632,154.642604 Z"></path>
        <path id="inner"   fill="#000000" fill-rule="nonzero" d="M100.001772,176.037667 C141.997461,176.037667 176.041393,141.99342 176.041393,99.9980821 C176.041393,58.002744 141.997461,23.9584972 100.001772,23.9584972 C58.0060833,23.9584972 23.9621505,58.002744 23.9621505,99.9980821 C23.9621505,141.99342 58.0060833,176.037667 100.001772,176.037667 Z M100.001772,174.454268 C58.8817081,174.454268 25.5470107,141.119263 25.5470107,99.9980821 C25.5470107,58.876901 58.8817081,25.541896 100.001772,25.541896 C141.121836,25.541896 174.456533,58.876901 174.456533,99.9980821 C174.456533,141.119263 141.121836,174.454268 100.001772,174.454268 Z"></path>
    </g>
</svg>