<?xml version="1.0" encoding="UTF-8"?>
<svg width="200px" height="200px" viewBox="0 0 200 200" version="1.1" xmlns="http://www.w3.org/2000/svg" xmlns:xlink="http://www.w3.org/1999/xlink">
    <!-- Generator: Sketch 51.2 (57519) - http://www.bohemiancoding.com/sketch -->
    <title>exp2</title>
    <desc>Created with Sketch.</desc>
    <defs></defs>
    <g id="exp2" stroke="none" stroke-width="1" fill="none" fill-rule="evenodd">
        <path d="M156.81154,151.430746 C156.81154,107.22656 121.010339,71.3919866 76.8473184,71.3919866 C32.6842981,71.3919866 -3.11690346,107.22656 -3.11690346,151.430746 C65.6148441,151.430746 94.0739857,151.430746 156.81154,151.430746 Z" id="Oval-Copy-5" stroke="#000000" stroke-width="1.6" transform="translate(76.847318, 111.411366) rotate(-135.000000) translate(-76.847318, -111.411366) "></path>
        <path d="M203.020302,104.037233 C203.020302,68.6738836 174.379341,40.006225 139.048925,40.006225 C103.718509,40.006225 75.0775475,68.6738836 75.0775475,104.037233 C130.062945,104.037233 152.830259,104.037233 203.020302,104.037233 Z" id="Oval-Copy-6" stroke="#000000" stroke-width="1.6" transform="translate(139.048925, 72.021729) rotate(-315.000000) translate(-139.048925, -72.021729) "></path>
        <path d="M194.635829,102.848432 C194.635829,71.0214177 168.858964,45.2205249 137.061589,45.2205249 C105.264214,45.2205249 79.4873493,71.0214177 79.4873493,102.848432 C128.974208,102.848432 149.464789,102.848432 194.635829,102.848432 Z" id="Oval-Copy-7" stroke="#000000" stroke-width="1.6" transform="translate(137.061589, 74.034478) rotate(-315.000000) translate(-137.061589, -74.034478) "></path>
        <path d="M171.0616,100.4625 C171.0616,78.360407 152.981993,60.4431203 130.679668,60.4431203 C108.377343,60.4431203 90.2977361,78.360407 90.2977361,100.4625 C125.007269,100.4625 139.379135,100.4625 171.0616,100.4625 Z" id="Oval-Copy-8" stroke="#000000" stroke-width="1.6" transform="translate(130.679668, 80.452810) rotate(-315.000000) translate(-130.679668, -80.452810) "></path>
    </g>
</svg>