<?xml version="1.0" encoding="UTF-8"?>
<svg width="200px" height="200px" viewBox="0 0 200 200" version="1.1" xmlns="http://www.w3.org/2000/svg" xmlns:xlink="http://www.w3.org/1999/xlink">
    <!-- Generator: Sketch 54.1 (76490) - https://sketchapp.com -->
    <title>exp2</title>
    <desc>Created with Sketch.</desc>
    <g id="exp2" stroke="none" stroke-width="1" fill="none" fill-rule="evenodd">
        <path d="M138.537365,149.06885 C138.537365,109.481399 106.477178,77.3891619 66.9286016,77.3891619 C27.3800256,77.3891619 -4.68016194,109.4814 -4.68016194,149.06885 L-4.68016194,149.77821 L138.537365,149.77821 L138.537365,149.06885 Z M-3.25803524,148.359491 C-2.87783918,109.882002 28.4002938,78.8078811 66.9286016,78.8078811 C105.45691,78.8078811 136.735042,109.882002 137.115238,148.359491 L-3.25803524,148.359491 Z" id="top-;eft" fill="#000000" fill-rule="nonzero" transform="translate(66.928601, 113.583686) rotate(-135.000000) translate(-66.928601, -113.583686) "></path>
        <path d="M204.148701,122.467866 C204.148701,82.8804146 172.088514,50.7881773 132.539937,50.7881773 C92.9913615,50.7881773 60.9311741,82.8804149 60.9311741,122.467866 L60.9311741,123.177225 L204.148701,123.177225 L204.148701,122.467866 Z M202.726574,121.758506 L62.3533008,121.758506 C62.7334969,83.2810174 94.0116297,52.2068966 132.539937,52.2068966 C171.068246,52.2068966 202.346378,83.2810171 202.726574,121.758506 Z" id="top-right" fill="#000000" fill-rule="nonzero" transform="translate(132.539938, 86.982701) rotate(45.000000) translate(-132.539938, -86.982701) "></path>
    </g>
</svg>