<?xml version="1.0" encoding="UTF-8"?>
<svg width="200px" height="200px" viewBox="0 0 200 200" version="1.1" xmlns="http://www.w3.org/2000/svg" xmlns:xlink="http://www.w3.org/1999/xlink">
    <!-- Generator: Sketch 54.1 (76490) - https://sketchapp.com -->
    <title>exp3</title>
    <desc>Created with Sketch.</desc>
    <g id="exp3" stroke="none" stroke-width="1" fill="none" fill-rule="evenodd">
        <path d="M155.147353,160.622208 C155.147353,115.406586 118.501145,78.7517541 73.2953513,78.7517541 C28.0895574,78.7517541 -8.55665025,115.406587 -8.55665025,160.622208 L-8.55665025,161.492538 L-7.68571429,161.492538 C76.3305595,161.492538 76.3305595,161.492538 154.276417,161.492538 L155.147353,161.492538 L155.147353,160.622208 Z M-6.81080759,159.751879 C-6.34358199,115.898163 29.34233,80.4924135 73.2953513,80.4924135 C117.248373,80.4924135 152.934284,115.898162 153.40151,159.751879 C76.5988508,159.751879 76.018166,159.751879 -6.81080759,159.751879 Z" id="bottom-left" fill="#000000" fill-rule="nonzero" transform="translate(73.295351, 120.122146) rotate(-135.000000) translate(-73.295351, -120.122146) "></path>
        <path d="M201.943716,112.659441 C201.943716,76.3908452 172.548801,46.989011 136.287928,46.989011 C100.027056,46.989011 70.6321399,76.3908453 70.6321399,112.659441 L70.6321399,113.52977 L71.5030759,113.52977 C138.716095,113.52977 138.716095,113.52977 201.07278,113.52977 L201.943716,113.52977 L201.943716,112.659441 Z M72.3789925,111.789111 C72.84545,76.8826641 101.27992,48.7296703 136.287928,48.7296703 C171.295936,48.7296703 199.730406,76.882664 200.196863,111.789111 C138.98412,111.789111 138.403836,111.789111 72.3789925,111.789111 Z" id="outer-top-right" fill="#000000" fill-rule="nonzero" transform="translate(136.287928, 80.259391) rotate(45.000000) translate(-136.287928, -80.259391) "></path>
        <path d="M193.452624,111.456361 C193.452624,78.7665761 166.958225,52.2659413 134.27532,52.2659413 C101.592416,52.2659413 75.0980173,78.7665761 75.0980173,111.456361 L75.0980173,112.326691 L75.9689533,112.326691 C136.46067,112.326691 136.46067,112.326691 192.581688,112.326691 L193.452624,112.326691 L193.452624,111.456361 Z M76.845434,110.586031 C77.3114627,79.2585303 102.845332,54.0066006 134.27532,54.0066006 C165.705309,54.0066006 191.239179,79.2585303 191.705207,110.586031 C136.728547,110.586031 136.148486,110.586031 76.845434,110.586031 Z" id="inside-top-right" fill="#000000" fill-rule="nonzero" transform="translate(134.275321, 82.296316) rotate(45.000000) translate(-134.275321, -82.296316) "></path>
        <path d="M169.57862,109.041771 C169.57862,86.1917687 150.877427,67.671379 127.812246,67.671379 C104.747064,67.671379 86.0458718,86.1917687 86.0458718,109.041771 L86.0458718,109.912101 L169.57862,109.912101 L169.57862,109.041771 Z M87.7972055,108.171441 C88.264737,86.688125 105.99937,69.4120383 127.812246,69.4120383 C149.625121,69.4120383 167.359755,86.688125 167.827286,108.171441 L87.7972055,108.171441 Z" id="inner-top-right" fill="#000000" fill-rule="nonzero" transform="translate(127.812246, 88.791740) rotate(45.000000) translate(-127.812246, -88.791740) "></path>
    </g>
</svg>