<?xml version="1.0" encoding="UTF-8"?>
<svg width="80px" height="80px" viewBox="0 0 80 80" version="1.1" xmlns="http://www.w3.org/2000/svg" xmlns:xlink="http://www.w3.org/1999/xlink">
    <defs>
        <polygon id="path-1" points="0.0006 0.0006 72 0.0006 72 72 0.0006 72"></polygon>
    </defs>
    <g id="Artboard" stroke="none" stroke-width="1" fill="none" fill-rule="evenodd">
        <path d="M11.7171,29.2329 C12.8581,29.9189 14.1241,30.2599 15.5171,30.2599 C16.8631,30.2599 18.0941,29.9189 19.2021,29.2329 C20.3111,28.5489 21.1801,27.6239 21.8111,26.4609 C22.4431,25.2979 22.7581,24.0089 22.7581,22.5949 C22.7581,21.1609 22.4321,19.8559 21.7781,18.6819 C21.1251,17.5059 20.2391,16.5789 19.1201,15.8929 C17.9991,15.2079 16.7561,14.8659 15.3861,14.8659 C14.0171,14.8659 12.7711,15.2079 11.6511,15.8929 C10.5311,16.5789 9.6451,17.5059 8.9931,18.6819 C8.3411,19.8559 8.0151,21.1609 8.0151,22.5949 C8.0151,23.9879 8.3451,25.2699 9.0091,26.4449 C9.6721,27.6199 10.5741,28.5489 11.7171,29.2329" id="Fill-1" fill="#fff"></path>
        <g id="Group-5">
            <mask id="mask-2" fill="white">
                <use xlink:href="#path-1"></use>
            </mask>
            <g id="Clip-4"></g>
            <path d="M50.6966,34.8266 L50.5736,34.8266 L35.3076,20.4806 L35.3076,34.8266 L30.2576,34.8266 L30.2576,10.2996 L30.4416,10.2996 L45.8176,24.8616 L45.8176,10.2996 L50.6966,10.2996 L50.6966,34.8266 Z M36.0006,0.0006 C25.3146,0.0006 15.7216,4.6596 9.1296,12.0526 C9.1676,12.0286 9.1996,12.0006 9.2376,11.9776 C11.1176,10.8586 13.1566,10.2996 15.3526,10.2996 C17.5496,10.2996 19.5876,10.8586 21.4676,11.9776 C23.3486,13.0986 24.8486,14.6046 25.9696,16.4966 C27.0896,18.3886 27.6496,20.4226 27.6496,22.5956 C27.6496,24.8126 27.0896,26.8576 25.9696,28.7276 C24.8486,30.5976 23.3486,32.0816 21.4676,33.1796 C19.5876,34.2776 17.5496,34.8266 15.3526,34.8266 C13.1346,34.8266 11.0906,34.2776 9.2196,33.1796 C7.3496,32.0816 5.8666,30.5976 4.7686,28.7276 C3.6706,26.8576 3.1216,24.8126 3.1216,22.5956 C3.1216,22.0996 3.1586,21.6136 3.2156,21.1326 C1.1566,25.6666 0.0006,30.6966 0.0006,36.0006 C0.0006,55.8826 16.1176,72.0006 36.0006,72.0006 C43.7096,72.0006 50.8466,69.5686 56.7046,65.4416 L56.7046,42.5386 L50.6966,42.5386 L50.6966,54.0306 C50.6966,56.4446 50.1366,57.8786 49.2276,59.1186 C48.3166,60.3586 47.0826,61.3266 45.5246,62.0196 C43.9666,62.7136 42.2546,63.0596 40.3896,63.0596 C38.5246,63.0596 36.8186,62.7136 35.2716,62.0196 C33.7246,61.3266 32.5036,60.3586 31.6056,59.1186 C30.7056,57.8786 30.2576,56.7486 30.2576,54.0306 L30.2576,38.5316 L35.3086,38.5316 L35.3086,53.9436 C35.3086,54.9656 35.4436,55.8066 35.9216,56.4316 C36.3986,57.0576 37.0346,57.5646 37.8316,57.9556 C38.6276,58.3476 39.4796,58.5426 40.3896,58.5426 C41.3676,58.5426 42.2666,58.3476 43.0866,57.9556 C43.9046,57.5646 44.5476,57.0576 45.0136,56.4316 C45.4786,55.8066 45.8176,55.0976 45.8176,53.9436 L45.8176,38.5316 L46.3636,38.5316 L50.6966,38.5316 L66.8876,38.5316 L66.8876,42.5386 L60.8536,42.5386 L60.8536,62.0296 C67.7176,55.4746 72.0006,46.2406 72.0006,36.0006 C72.0006,16.1176 55.8826,0.0006 36.0006,0.0006 Z" id="Fill-3" fill="#fff" mask="url(#mask-2)"></path>
        </g>
    </g>
</svg>